<svg version="1.1" id="Layer_1" xmlns="http://www.w3.org/2000/svg" xmlns:xlink="http://www.w3.org/1999/xlink" x="0px" y="0px"
	 width="100%" viewBox="0 0 1237 222" enable-background="new 0 0 1237 222" xml:space="preserve">
<path fill="#111A21" opacity="1.000000" stroke="none" 
	d="
M907.000000,223.000000 
	C604.666687,223.000000 302.833344,223.000000 1.000000,223.000000 
	C1.000000,149.000000 1.000000,75.000000 1.000000,1.000000 
	C413.333344,1.000000 825.666687,1.000000 1238.000000,1.000000 
	C1238.000000,75.000000 1238.000000,149.000000 1238.000000,223.000000 
	C1127.833374,223.000000 1017.666687,223.000000 907.000000,223.000000 
M900.063538,100.490547 
	C905.920288,116.915092 911.769287,133.342422 917.636963,149.763062 
	C920.652100,158.200897 920.671265,158.030411 929.474365,158.247864 
	C933.187927,158.339600 934.900452,157.259796 936.180359,153.531433 
	C943.335938,132.687653 950.847717,111.965942 958.272888,91.215088 
	C960.180786,85.883171 962.215698,80.596703 964.682129,73.973862 
	C964.682129,102.862755 964.682129,130.240799 964.682129,157.846313 
	C969.526306,157.846313 974.282898,157.846313 979.150024,157.846313 
	C979.150024,124.139465 979.150024,90.586906 979.150024,56.697098 
	C971.988342,56.697098 965.165405,56.511822 958.368713,56.851288 
	C956.986877,56.920300 954.978943,58.714287 954.484009,60.138577 
	C947.033630,81.576904 939.760498,103.077087 932.516846,124.586723 
	C930.966492,129.190720 929.697327,133.889420 927.889587,139.905563 
	C926.991028,136.943588 926.568298,135.420380 926.068787,133.922791 
	C917.871033,109.344215 909.695923,84.757896 901.373352,60.221615 
	C900.902832,58.834511 899.244751,56.906532 898.069763,56.856201 
	C890.803345,56.544926 883.516846,56.699768 876.137207,56.699768 
	C876.137207,90.726837 876.137207,124.272842 876.137207,157.766724 
	C881.189453,157.766724 885.926880,157.766724 890.446533,157.766724 
	C890.446533,130.116867 890.446533,102.775490 890.446533,75.434105 
	C890.617249,75.366623 890.787903,75.299149 890.958618,75.231667 
	C893.931641,83.396751 896.904663,91.561829 900.063538,100.490547 
M404.209045,102.254913 
	C395.514618,88.104645 386.845459,73.938690 378.083405,59.830425 
	C377.281067,58.538513 375.933258,56.734894 374.755890,56.669922 
	C368.870483,56.345119 362.957397,56.521297 357.181152,56.521297 
	C357.181152,90.817413 357.181152,124.357018 357.181152,157.653748 
	C362.262177,157.653748 366.984100,157.653748 371.570343,157.653748 
	C371.570343,130.601624 371.570343,103.968681 371.570343,76.704910 
	C372.375580,77.877747 372.868103,78.516510 373.278503,79.204277 
	C388.251617,104.295189 403.191772,129.405869 418.246979,154.447357 
	C419.142212,155.936432 420.887054,157.805710 422.347076,157.907150 
	C428.101624,158.306992 433.900360,158.071091 439.808838,158.071091 
	C439.808838,124.087044 439.808838,90.543327 439.808838,56.913803 
	C434.789703,56.913803 430.038757,56.913803 424.863007,56.913803 
	C424.863007,83.605141 424.863007,110.084145 424.863007,137.117783 
	C417.873993,125.297195 411.242188,114.080757 404.209045,102.254913 
M662.058228,140.350754 
	C669.974609,152.353226 681.681641,157.748062 695.462708,159.609055 
	C715.044312,162.253357 733.927002,153.227356 742.957153,136.464661 
	C749.257935,124.768562 750.132568,111.998100 748.927795,99.084267 
	C746.652100,74.693047 732.818359,59.731701 709.065308,55.531017 
	C689.594666,52.087669 668.663940,61.126190 660.351868,78.009842 
	C650.247437,98.534286 650.702881,119.372276 662.058228,140.350754 
M790.501587,56.688225 
	C784.898926,56.688225 779.296204,56.688225 773.506226,56.688225 
	C773.506226,90.731865 773.506226,124.146706 773.506226,157.820648 
	C778.946106,157.820648 784.171082,157.820648 789.844482,157.820648 
	C789.844482,143.123077 789.844482,128.673645 789.844482,114.224228 
	C789.844482,99.773880 789.844482,85.323532 789.844482,70.914742 
	C799.805908,70.914742 809.281738,70.488335 818.700317,71.039421 
	C827.427673,71.550064 832.841858,77.434631 833.151123,85.313820 
	C833.556274,95.635513 829.745544,100.954788 820.318420,102.995049 
	C817.602295,103.582870 814.813049,103.832901 810.939453,104.402069 
	C811.792908,109.873474 811.265930,116.052185 813.750854,120.576759 
	C820.374207,132.636856 828.264832,144.003754 835.743469,155.586975 
	C836.464111,156.703171 837.791260,158.126236 838.895386,158.178787 
	C844.454895,158.443329 850.033875,158.300217 856.300903,158.300217 
	C846.897461,143.745697 837.962280,129.915817 828.949219,115.965393 
	C850.293457,108.284485 852.687195,90.552498 848.914551,77.437866 
	C845.604858,65.932846 833.729065,57.437923 819.982056,56.890663 
	C810.500671,56.513214 800.995422,56.734509 790.501587,56.688225 
M486.944397,74.366768 
	C502.712738,63.948109 520.309570,68.560379 532.710571,86.627563 
	C536.729797,82.960243 540.705322,79.332787 544.812988,75.584755 
	C542.996521,73.274292 541.678467,71.352379 540.118347,69.652672 
	C528.375732,56.859245 513.372559,53.688629 496.901031,55.473610 
	C487.059662,56.540096 478.299011,60.120605 471.470551,67.761513 
	C459.780487,80.842461 463.083038,101.015984 478.739136,108.706718 
	C484.625885,111.598465 491.206635,113.137039 497.551544,115.021095 
	C505.000153,117.232880 512.564270,119.053970 520.024719,121.228302 
	C524.748657,122.605087 527.829834,125.704391 527.978821,130.858932 
	C528.136230,136.301315 525.175842,139.868103 520.422668,142.092239 
	C511.382446,146.322388 502.014679,146.019501 492.609894,143.788635 
	C483.531281,141.635132 477.394196,135.549316 473.522705,128.920273 
	C469.628174,132.602570 465.815613,136.207367 460.712433,141.032440 
	C464.308655,144.056610 467.795013,147.734283 471.948761,150.353577 
	C490.917816,162.315094 510.959320,163.115799 530.900024,153.628662 
	C541.362000,148.651199 545.993713,139.045715 545.175476,127.192741 
	C544.445984,116.625816 538.228821,110.221214 529.046997,106.363243 
	C524.628296,104.506599 519.895508,103.362663 515.255188,102.075569 
	C506.957092,99.773895 498.361603,98.284126 490.367737,95.212685 
	C480.626007,91.469681 479.280853,82.713425 486.944397,74.366768 
M182.493134,56.697350 
	C170.083130,56.697350 157.673141,56.697350 145.337616,56.697350 
	C145.337616,90.863358 145.337616,124.407486 145.337616,157.809570 
	C150.787796,157.809570 155.893387,157.809570 161.543091,157.809570 
	C161.543091,128.693558 161.543091,99.837265 161.543091,70.947151 
	C171.569916,70.947151 181.070465,70.524452 190.514557,71.073227 
	C198.939514,71.562790 204.298660,77.283600 204.921127,84.972961 
	C205.662231,94.127907 201.943253,100.343323 193.839539,102.712837 
	C190.565079,103.670280 187.047348,103.795738 182.678772,104.442070 
	C183.378952,109.675659 182.673965,115.599190 185.020416,119.830574 
	C191.856232,132.157669 199.881088,143.828247 207.541641,155.690414 
	C208.256088,156.796707 209.660355,158.120804 210.800674,158.175827 
	C216.209244,158.436752 221.637360,158.292404 228.027466,158.292404 
	C218.629303,143.644821 209.754776,129.813324 200.756866,115.789551 
	C202.013962,115.325829 202.472336,115.155823 202.931366,114.987556 
	C214.234146,110.844330 221.566895,101.020195 222.002319,89.436661 
	C222.528015,75.451431 216.917587,65.883438 205.372940,60.363010 
	C198.370682,57.014668 191.020767,56.494400 182.493134,56.697350 
M254.420502,124.959778 
	C250.322754,135.874878 246.224991,146.789963 242.037354,157.944443 
	C248.036102,157.944443 253.354950,157.944443 258.918915,157.944443 
	C261.688019,150.265945 264.554443,142.659698 267.140503,134.959320 
	C268.033417,132.300537 269.367920,131.402237 272.163910,131.438217 
	C283.828094,131.588287 295.498901,131.662857 307.159363,131.406113 
	C310.828186,131.325317 312.396881,132.560242 313.480865,135.968842 
	C315.864105,143.463318 318.706635,150.811752 321.222809,157.832275 
	C327.358124,157.832275 332.790253,157.832275 338.422302,157.832275 
	C338.225952,156.920959 338.169006,156.254425 337.940399,155.653152 
	C327.156219,127.288589 316.374237,98.923172 305.542572,70.576744 
	C303.779724,65.963387 302.983459,59.679279 299.570923,57.361301 
	C296.112549,55.012173 289.964569,56.621632 284.994537,56.500607 
	C284.494873,56.488441 283.874664,56.308090 283.515594,56.533134 
	C282.036774,57.459908 279.850037,58.208969 279.326141,59.565197 
	C271.014069,81.081947 262.918884,102.682480 254.420502,124.959778 
M570.664246,158.174713 
	C575.248535,158.174713 579.832825,158.174713 584.894409,158.174713 
	C584.894409,143.213562 584.894409,128.979324 584.894409,114.248306 
	C599.942627,114.248306 614.492493,114.248306 629.068420,114.248306 
	C629.068420,109.308525 629.068420,104.883698 629.068420,100.030502 
	C614.252075,100.030502 599.672241,100.030502 585.081177,100.030502 
	C585.081177,90.071762 585.081177,80.551369 585.081177,70.684769 
	C604.039368,70.684769 622.627747,70.684769 641.402893,70.684769 
	C641.402893,65.932808 641.402893,61.539207 641.402893,57.103306 
	C616.866028,57.103306 592.636292,57.103306 568.602173,57.103306 
	C568.315857,57.519203 568.142334,57.653591 568.142151,57.788166 
	C568.107544,90.262047 568.070618,122.735970 568.130920,155.209702 
	C568.132690,156.194031 569.152527,157.176468 570.664246,158.174713 
M74.834564,133.499924 
	C74.834564,141.591507 74.834564,149.683090 74.834564,157.715302 
	C80.625046,157.715302 85.845551,157.715302 91.296692,157.715302 
	C91.296692,128.598709 91.296692,99.834366 91.296692,70.571045 
	C102.939926,70.571045 114.346588,70.571045 126.011749,70.571045 
	C126.011749,65.684212 126.011749,61.298927 126.011749,56.714096 
	C97.317581,56.714096 68.906792,56.714096 40.371357,56.714096 
	C40.371357,61.301315 40.371357,65.821457 40.371357,70.730637 
	C52.009647,70.730637 63.281605,70.730637 74.834564,70.730637 
	C74.834564,91.582748 74.834564,112.041328 74.834564,133.499924 
M1104.048706,114.189384 
	C1104.345093,116.328140 1104.522949,118.491272 1104.956665,120.601845 
	C1108.646973,138.563797 1117.456299,152.273834 1136.052246,157.775436 
	C1156.899658,163.943176 1184.515503,157.181625 1193.437256,129.973419 
	C1197.958374,116.185768 1198.296997,102.251472 1194.427124,88.235962 
	C1189.957397,72.047478 1180.129395,61.081142 1163.601807,56.734867 
	C1142.783325,51.260166 1115.898682,57.785053 1107.390381,85.718651 
	C1104.737061,94.429245 1105.063477,104.047401 1104.048706,114.189384 
M1075.349731,68.138176 
	C1078.571167,73.043365 1081.792603,77.948555 1085.067017,82.934219 
	C1087.742920,82.377579 1088.303589,81.006630 1087.171997,78.092018 
	C1081.858765,64.407486 1071.460449,57.807377 1057.434204,55.553780 
	C1034.767578,51.911934 1015.857971,62.444538 1007.588135,83.531715 
	C1003.475647,94.018005 1002.891968,104.861977 1003.860535,115.903946 
	C1006.566895,146.757202 1030.636719,165.090164 1060.869385,158.809616 
	C1075.033691,155.867111 1084.744507,147.283112 1089.308594,132.928055 
	C1087.805176,132.241165 1086.579834,131.681320 1085.352051,131.120377 
	C1084.314941,133.541199 1083.600464,135.589539 1082.599609,137.486786 
	C1070.363770,160.679855 1034.147339,163.080292 1018.119751,141.055542 
	C1004.890076,122.875687 1005.116028,102.546074 1013.128540,82.242271 
	C1022.432373,58.666344 1055.559082,51.022533 1075.349731,68.138176 
z"/>
<path fill="#FCFCFD" opacity="1.000000" stroke="none" 
	d="
M899.970581,100.108734 
	C896.904663,91.561829 893.931641,83.396751 890.958618,75.231667 
	C890.787903,75.299149 890.617249,75.366623 890.446533,75.434105 
	C890.446533,102.775490 890.446533,130.116867 890.446533,157.766724 
	C885.926880,157.766724 881.189453,157.766724 876.137207,157.766724 
	C876.137207,124.272842 876.137207,90.726837 876.137207,56.699768 
	C883.516846,56.699768 890.803345,56.544926 898.069763,56.856201 
	C899.244751,56.906532 900.902832,58.834511 901.373352,60.221615 
	C909.695923,84.757896 917.871033,109.344215 926.068787,133.922791 
	C926.568298,135.420380 926.991028,136.943588 927.889587,139.905563 
	C929.697327,133.889420 930.966492,129.190720 932.516846,124.586723 
	C939.760498,103.077087 947.033630,81.576904 954.484009,60.138577 
	C954.978943,58.714287 956.986877,56.920300 958.368713,56.851288 
	C965.165405,56.511822 971.988342,56.697098 979.150024,56.697098 
	C979.150024,90.586906 979.150024,124.139465 979.150024,157.846313 
	C974.282898,157.846313 969.526306,157.846313 964.682129,157.846313 
	C964.682129,130.240799 964.682129,102.862755 964.682129,73.973862 
	C962.215698,80.596703 960.180786,85.883171 958.272888,91.215088 
	C950.847717,111.965942 943.335938,132.687653 936.180359,153.531433 
	C934.900452,157.259796 933.187927,158.339600 929.474365,158.247864 
	C920.671265,158.030411 920.652100,158.200897 917.636963,149.763062 
	C911.769287,133.342422 905.920288,116.915092 899.970581,100.108734 
z"/>
<path fill="#FDFDFD" opacity="1.000000" stroke="none" 
	d="
M404.409729,102.559616 
	C411.242188,114.080757 417.873993,125.297195 424.863007,137.117783 
	C424.863007,110.084145 424.863007,83.605141 424.863007,56.913803 
	C430.038757,56.913803 434.789703,56.913803 439.808838,56.913803 
	C439.808838,90.543327 439.808838,124.087044 439.808838,158.071091 
	C433.900360,158.071091 428.101624,158.306992 422.347076,157.907150 
	C420.887054,157.805710 419.142212,155.936432 418.246979,154.447357 
	C403.191772,129.405869 388.251617,104.295189 373.278503,79.204277 
	C372.868103,78.516510 372.375580,77.877747 371.570343,76.704910 
	C371.570343,103.968681 371.570343,130.601624 371.570343,157.653748 
	C366.984100,157.653748 362.262177,157.653748 357.181152,157.653748 
	C357.181152,124.357018 357.181152,90.817413 357.181152,56.521297 
	C362.957397,56.521297 368.870483,56.345119 374.755890,56.669922 
	C375.933258,56.734894 377.281067,58.538513 378.083405,59.830425 
	C386.845459,73.938690 395.514618,88.104645 404.409729,102.559616 
z"/>
<path fill="#FCFCFC" opacity="1.000000" stroke="none" 
	d="
M661.902588,140.023026 
	C650.702881,119.372276 650.247437,98.534286 660.351868,78.009842 
	C668.663940,61.126190 689.594666,52.087669 709.065308,55.531017 
	C732.818359,59.731701 746.652100,74.693047 748.927795,99.084267 
	C750.132568,111.998100 749.257935,124.768562 742.957153,136.464661 
	C733.927002,153.227356 715.044312,162.253357 695.462708,159.609055 
	C681.681641,157.748062 669.974609,152.353226 661.902588,140.023026 
M673.900818,126.418747 
	C678.871948,138.703415 688.660828,145.482346 701.455994,145.501068 
	C713.842346,145.519196 724.662659,138.432129 728.822449,126.861618 
	C733.664185,113.394218 733.518738,99.757103 728.092102,86.471184 
	C723.733765,75.800713 712.476929,69.148720 700.546814,69.527725 
	C688.365417,69.914711 678.234619,76.932274 674.135803,88.089317 
	C669.565674,100.529510 669.656494,113.094788 673.900818,126.418747 
z"/>
<path fill="#FAFAFA" opacity="1.000000" stroke="none" 
	d="
M791.001221,56.688225 
	C800.995422,56.734509 810.500671,56.513214 819.982056,56.890663 
	C833.729065,57.437923 845.604858,65.932846 848.914551,77.437866 
	C852.687195,90.552498 850.293457,108.284485 828.949219,115.965393 
	C837.962280,129.915817 846.897461,143.745697 856.300903,158.300217 
	C850.033875,158.300217 844.454895,158.443329 838.895386,158.178787 
	C837.791260,158.126236 836.464111,156.703171 835.743469,155.586975 
	C828.264832,144.003754 820.374207,132.636856 813.750854,120.576759 
	C811.265930,116.052185 811.792908,109.873474 810.939453,104.402069 
	C814.813049,103.832901 817.602295,103.582870 820.318420,102.995049 
	C829.745544,100.954788 833.556274,95.635513 833.151123,85.313820 
	C832.841858,77.434631 827.427673,71.550064 818.700317,71.039421 
	C809.281738,70.488335 799.805908,70.914742 789.844482,70.914742 
	C789.844482,85.323532 789.844482,99.773880 789.844482,114.224228 
	C789.844482,128.673645 789.844482,143.123077 789.844482,157.820648 
	C784.171082,157.820648 778.946106,157.820648 773.506226,157.820648 
	C773.506226,124.146706 773.506226,90.731865 773.506226,56.688225 
	C779.296204,56.688225 784.898926,56.688225 791.001221,56.688225 
z"/>
<path fill="#FCFCFD" opacity="1.000000" stroke="none" 
	d="
M486.675018,74.624207 
	C479.280853,82.713425 480.626007,91.469681 490.367737,95.212685 
	C498.361603,98.284126 506.957092,99.773895 515.255188,102.075569 
	C519.895508,103.362663 524.628296,104.506599 529.046997,106.363243 
	C538.228821,110.221214 544.445984,116.625816 545.175476,127.192741 
	C545.993713,139.045715 541.362000,148.651199 530.900024,153.628662 
	C510.959320,163.115799 490.917816,162.315094 471.948761,150.353577 
	C467.795013,147.734283 464.308655,144.056610 460.712433,141.032440 
	C465.815613,136.207367 469.628174,132.602570 473.522705,128.920273 
	C477.394196,135.549316 483.531281,141.635132 492.609894,143.788635 
	C502.014679,146.019501 511.382446,146.322388 520.422668,142.092239 
	C525.175842,139.868103 528.136230,136.301315 527.978821,130.858932 
	C527.829834,125.704391 524.748657,122.605087 520.024719,121.228302 
	C512.564270,119.053970 505.000153,117.232880 497.551544,115.021095 
	C491.206635,113.137039 484.625885,111.598465 478.739136,108.706718 
	C463.083038,101.015984 459.780487,80.842461 471.470551,67.761513 
	C478.299011,60.120605 487.059662,56.540096 496.901031,55.473610 
	C513.372559,53.688629 528.375732,56.859245 540.118347,69.652672 
	C541.678467,71.352379 542.996521,73.274292 544.812988,75.584755 
	C540.705322,79.332787 536.729797,82.960243 532.710571,86.627563 
	C520.309570,68.560379 502.712738,63.948109 486.675018,74.624207 
z"/>
<path fill="#FDFDFD" opacity="1.000000" stroke="none" 
	d="
M182.990967,56.697380 
	C191.020767,56.494400 198.370682,57.014668 205.372940,60.363010 
	C216.917587,65.883438 222.528015,75.451431 222.002319,89.436661 
	C221.566895,101.020195 214.234146,110.844330 202.931366,114.987556 
	C202.472336,115.155823 202.013962,115.325829 200.756866,115.789551 
	C209.754776,129.813324 218.629303,143.644821 228.027466,158.292404 
	C221.637360,158.292404 216.209244,158.436752 210.800674,158.175827 
	C209.660355,158.120804 208.256088,156.796707 207.541641,155.690414 
	C199.881088,143.828247 191.856232,132.157669 185.020416,119.830574 
	C182.673965,115.599190 183.378952,109.675659 182.678772,104.442070 
	C187.047348,103.795738 190.565079,103.670280 193.839539,102.712837 
	C201.943253,100.343323 205.662231,94.127907 204.921127,84.972961 
	C204.298660,77.283600 198.939514,71.562790 190.514557,71.073227 
	C181.070465,70.524452 171.569916,70.947151 161.543091,70.947151 
	C161.543091,99.837265 161.543091,128.693558 161.543091,157.809570 
	C155.893387,157.809570 150.787796,157.809570 145.337616,157.809570 
	C145.337616,124.407486 145.337616,90.863358 145.337616,56.697350 
	C157.673141,56.697350 170.083130,56.697350 182.990967,56.697380 
z"/>
<path fill="#FCFCFD" opacity="1.000000" stroke="none" 
	d="
M254.597305,124.611816 
	C262.918884,102.682480 271.014069,81.081947 279.326141,59.565197 
	C279.850037,58.208969 282.036774,57.459908 283.515594,56.533134 
	C283.874664,56.308090 284.494873,56.488441 284.994537,56.500607 
	C289.964569,56.621632 296.112549,55.012173 299.570923,57.361301 
	C302.983459,59.679279 303.779724,65.963387 305.542572,70.576744 
	C316.374237,98.923172 327.156219,127.288589 337.940399,155.653152 
	C338.169006,156.254425 338.225952,156.920959 338.422302,157.832275 
	C332.790253,157.832275 327.358124,157.832275 321.222809,157.832275 
	C318.706635,150.811752 315.864105,143.463318 313.480865,135.968842 
	C312.396881,132.560242 310.828186,131.325317 307.159363,131.406113 
	C295.498901,131.662857 283.828094,131.588287 272.163910,131.438217 
	C269.367920,131.402237 268.033417,132.300537 267.140503,134.959320 
	C264.554443,142.659698 261.688019,150.265945 258.918915,157.944443 
	C253.354950,157.944443 248.036102,157.944443 242.037354,157.944443 
	C246.224991,146.789963 250.322754,135.874878 254.597305,124.611816 
M275.333160,112.973396 
	C274.797516,114.500839 274.261871,116.028290 273.628052,117.835655 
	C284.749542,117.835655 295.332642,117.835655 306.380035,117.835655 
	C300.968536,102.317795 295.659088,87.092499 290.144440,71.278854 
	C285.241364,85.249542 280.498657,98.763329 275.333160,112.973396 
z"/>
<path fill="#FAFAFA" opacity="1.000000" stroke="none" 
	d="
M570.181030,158.167252 
	C569.152527,157.176468 568.132690,156.194031 568.130920,155.209702 
	C568.070618,122.735970 568.107544,90.262047 568.142151,57.788166 
	C568.142334,57.653591 568.315857,57.519203 568.602173,57.103306 
	C592.636292,57.103306 616.866028,57.103306 641.402893,57.103306 
	C641.402893,61.539207 641.402893,65.932808 641.402893,70.684769 
	C622.627747,70.684769 604.039368,70.684769 585.081177,70.684769 
	C585.081177,80.551369 585.081177,90.071762 585.081177,100.030502 
	C599.672241,100.030502 614.252075,100.030502 629.068420,100.030502 
	C629.068420,104.883698 629.068420,109.308525 629.068420,114.248306 
	C614.492493,114.248306 599.942627,114.248306 584.894409,114.248306 
	C584.894409,128.979324 584.894409,143.213562 584.894409,158.174713 
	C579.832825,158.174713 575.248535,158.174713 570.181030,158.167252 
z"/>
<path fill="#FFFFFF" opacity="1.000000" stroke="none" 
	d="
M74.834564,132.999908 
	C74.834564,112.041328 74.834564,91.582748 74.834564,70.730637 
	C63.281605,70.730637 52.009647,70.730637 40.371357,70.730637 
	C40.371357,65.821457 40.371357,61.301315 40.371357,56.714096 
	C68.906792,56.714096 97.317581,56.714096 126.011749,56.714096 
	C126.011749,61.298927 126.011749,65.684212 126.011749,70.571045 
	C114.346588,70.571045 102.939926,70.571045 91.296692,70.571045 
	C91.296692,99.834366 91.296692,128.598709 91.296692,157.715302 
	C85.845551,157.715302 80.625046,157.715302 74.834564,157.715302 
	C74.834564,149.683090 74.834564,141.591507 74.834564,132.999908 
z"/>
<path fill="#F4F5F5" opacity="1.000000" stroke="none" 
	d="
M1104.037231,113.719742 
	C1105.063477,104.047401 1104.737061,94.429245 1107.390381,85.718651 
	C1115.898682,57.785053 1142.783325,51.260166 1163.601807,56.734867 
	C1180.129395,61.081142 1189.957397,72.047478 1194.427124,88.235962 
	C1198.296997,102.251472 1197.958374,116.185768 1193.437256,129.973419 
	C1184.515503,157.181625 1156.899658,163.943176 1136.052246,157.775436 
	C1117.456299,152.273834 1108.646973,138.563797 1104.956665,120.601845 
	C1104.522949,118.491272 1104.345093,116.328140 1104.037231,113.719742 
M1169.897949,63.358074 
	C1167.549805,62.525417 1165.224365,61.620853 1162.849976,60.871468 
	C1143.082886,54.632797 1120.654175,64.417656 1113.338989,82.653687 
	C1107.088867,98.234436 1106.885620,114.074966 1112.479370,129.866058 
	C1117.962158,145.343246 1129.362549,153.904114 1145.419189,155.572083 
	C1161.380859,157.230194 1175.368408,152.475632 1184.300903,138.445435 
	C1193.094604,124.633331 1194.346436,109.189575 1191.103882,93.314537 
	C1188.490112,80.518196 1182.509399,70.062904 1169.897949,63.358074 
z"/>
<path fill="#F5F6F6" opacity="1.000000" stroke="none" 
	d="
M1075.051514,67.935501 
	C1055.559082,51.022533 1022.432373,58.666344 1013.128540,82.242271 
	C1005.116028,102.546074 1004.890076,122.875687 1018.119751,141.055542 
	C1034.147339,163.080292 1070.363770,160.679855 1082.599609,137.486786 
	C1083.600464,135.589539 1084.314941,133.541199 1085.352051,131.120377 
	C1086.579834,131.681320 1087.805176,132.241165 1089.308594,132.928055 
	C1084.744507,147.283112 1075.033691,155.867111 1060.869385,158.809616 
	C1030.636719,165.090164 1006.566895,146.757202 1003.860535,115.903946 
	C1002.891968,104.861977 1003.475647,94.018005 1007.588135,83.531715 
	C1015.857971,62.444538 1034.767578,51.911934 1057.434204,55.553780 
	C1071.460449,57.807377 1081.858765,64.407486 1087.171997,78.092018 
	C1088.303589,81.006630 1087.742920,82.377579 1085.067017,82.934219 
	C1081.792603,77.948555 1078.571167,73.043365 1075.051514,67.935501 
z"/>
<path fill="#121B22" opacity="1.000000" stroke="none" 
	d="
M673.757935,126.051201 
	C669.656494,113.094788 669.565674,100.529510 674.135803,88.089317 
	C678.234619,76.932274 688.365417,69.914711 700.546814,69.527725 
	C712.476929,69.148720 723.733765,75.800713 728.092102,86.471184 
	C733.518738,99.757103 733.664185,113.394218 728.822449,126.861618 
	C724.662659,138.432129 713.842346,145.519196 701.455994,145.501068 
	C688.660828,145.482346 678.871948,138.703415 673.757935,126.051201 
z"/>
<path fill="#141D24" opacity="1.000000" stroke="none" 
	d="
M275.544556,112.625259 
	C280.498657,98.763329 285.241364,85.249542 290.144440,71.278854 
	C295.659088,87.092499 300.968536,102.317795 306.380035,117.835655 
	C295.332642,117.835655 284.749542,117.835655 273.628052,117.835655 
	C274.261871,116.028290 274.797516,114.500839 275.544556,112.625259 
z"/>
<path fill="#121B22" opacity="1.000000" stroke="none" 
	d="
M1170.201294,63.589191 
	C1182.509399,70.062904 1188.490112,80.518196 1191.103882,93.314537 
	C1194.346436,109.189575 1193.094604,124.633331 1184.300903,138.445435 
	C1175.368408,152.475632 1161.380859,157.230194 1145.419189,155.572083 
	C1129.362549,153.904114 1117.962158,145.343246 1112.479370,129.866058 
	C1106.885620,114.074966 1107.088867,98.234436 1113.338989,82.653687 
	C1120.654175,64.417656 1143.082886,54.632797 1162.849976,60.871468 
	C1165.224365,61.620853 1167.549805,62.525417 1170.201294,63.589191 
z"/>
</svg>